<?xml version="1.0" encoding="utf-8"?>
<!-- Generator: Adobe Illustrator 23.0.1, SVG Export Plug-In . SVG Version: 6.00 Build 0)  -->
<svg version="1.1" xmlns="http://www.w3.org/2000/svg" xmlns:xlink="http://www.w3.org/1999/xlink" x="0px" y="0px"
	 viewBox="0 0 240 240" style="enable-background:new 0 0 240 240;" xml:space="preserve">
<style type="text/css">
	.st0{fill:none;stroke:#FFFFFF;stroke-width:4;stroke-linecap:round;stroke-linejoin:round;stroke-miterlimit:10;}
	.st1{fill:none;stroke:#FFFFFF;stroke-width:4;stroke-miterlimit:10;}
	.st2{display:none;}
	.st3{display:inline;}
	.st4{fill:#FFFFFF;}
	.st5{display:inline;fill:#FFFFFF;}
	.st6{fill:none;stroke:#FFFFFF;stroke-width:4;stroke-linecap:round;stroke-linejoin:round;}
	.st7{fill:none;stroke:#FFFFFF;stroke-width:3.2242;stroke-linecap:round;stroke-linejoin:round;stroke-miterlimit:10;}
	.st8{fill:#FFFFFF;}
	.st9{fill:none;stroke:#FFFFFF;stroke-width:3;stroke-linecap:round;stroke-linejoin:round;stroke-miterlimit:10;}
	.st10{fill:none;stroke:#FFFFFF;stroke-width:4;stroke-linecap:round;stroke-linejoin:round;stroke-miterlimit:10;}
</style>
<g id="Layer_1">
	<g class="st2">
		<g class="st3">
			<path class="st4" d="M68.05,193.31c-1.12,1.12-2.93,1.13-4.05,0.01l-25.18-25.18c-1.12-1.12-1.11-2.93,0.01-4.05l0,0
				c1.12-1.12,2.93-1.13,4.05-0.01l25.18,25.18C69.17,190.38,69.17,192.19,68.05,193.31L68.05,193.31z"/>
			<path class="st4" d="M66.01,194.71c-0.91,0-1.76-0.35-2.4-1l-25.18-25.18c-0.64-0.64-1-1.5-1-2.41c0-0.91,0.36-1.77,1.01-2.41
				c1.33-1.34,3.5-1.33,4.83-0.01l25.18,25.18c1.33,1.33,1.32,3.5-0.01,4.83C67.79,194.35,66.93,194.7,66.01,194.71
				C66.02,194.71,66.02,194.71,66.01,194.71z M40.86,163.8c-0.59,0-1.19,0.23-1.64,0.68c-0.44,0.44-0.68,1.02-0.68,1.64
				c0,0.62,0.24,1.2,0.67,1.63l25.18,25.18c0.43,0.43,1.01,0.67,1.63,0.67c0,0,0,0,0.01,0c0.62,0,1.2-0.24,1.64-0.68
				c0.9-0.91,0.91-2.37,0.01-3.27l-25.18-25.18C42.04,164.03,41.45,163.8,40.86,163.8z"/>
		</g>
		<path class="st5" d="M101.35,157.65c-1.28,0-2.48-0.5-3.38-1.4L72.8,131.08c-1.86-1.87-1.86-4.9,0.01-6.77
			c0.9-0.9,2.11-1.4,3.38-1.41c0,0,0.01,0,0.01,0c1.28,0,2.48,0.5,3.38,1.4l25.18,25.17c1.86,1.87,1.86,4.9-0.01,6.77
			c-0.9,0.9-2.11,1.4-3.38,1.41C101.36,157.65,101.35,157.65,101.35,157.65z M76.2,126.75C76.2,126.75,76.2,126.75,76.2,126.75
			c-0.15,0-0.43,0.04-0.67,0.28c-0.37,0.37-0.37,0.96-0.01,1.33l25.18,25.17c0.24,0.24,0.57,0.28,0.66,0.27
			c0.15,0,0.43-0.04,0.67-0.28c0.37-0.37,0.37-0.96,0.01-1.33l-25.18-25.17C76.62,126.78,76.35,126.75,76.2,126.75z"/>
		<path class="st5" d="M61.88,185.2l-15.71-15.71l34.67-34.67l15.71,15.71L61.88,185.2z M51.61,169.49l10.27,10.27l29.22-29.22
			l-10.27-10.26L51.61,169.49z"/>
		<g class="st3">
			<polygon class="st4" points="142.53,73.38 151.98,66.78 164.02,65.62 164.02,78.3 157.05,87.9 			"/>
			<path class="st4" d="M157.12,88.75l-15.44-15.44l10.11-7.05l12.79-1.23v13.46L157.12,88.75z M143.38,73.46l13.6,13.6l6.48-8.94
				V66.23l-11.29,1.09L143.38,73.46z"/>
		</g>
		<path class="st5" d="M162.78,68.84c-0.49,0-0.98-0.19-1.36-0.56c-0.75-0.75-0.75-1.97,0-2.72l29.2-29.2
			c0.75-0.75,1.97-0.75,2.72,0c0.75,0.75,0.75,1.97,0,2.72l-29.2,29.2C163.77,68.65,163.28,68.84,162.78,68.84z"/>
		<g class="st3">
			<path class="st4" d="M99.41,148.82c-0.49,0-0.98-0.19-1.36-0.56l-16.35-16.34c-0.36-0.36-0.56-0.85-0.56-1.36
				c0-0.51,0.2-1,0.56-1.36l58.52-58.52c0.75-0.75,1.97-0.75,2.72,0l16.34,16.34c0.75,0.75,0.75,1.97,0,2.72l-58.52,58.52
				C100.4,148.63,99.91,148.82,99.41,148.82z M85.79,130.55l13.62,13.62l55.8-55.8l-13.62-13.62L85.79,130.55z"/>
			
				<rect x="137.5" y="76.31" transform="matrix(0.7071 -0.7071 0.7071 0.7071 -16.7488 122.4415)" class="st4" width="3.85" height="10.25"/>
			
				<rect x="125.92" y="87.89" transform="matrix(0.7071 -0.7071 0.7071 0.7071 -28.3246 117.6487)" class="st4" width="3.85" height="10.25"/>
			
				<rect x="114.35" y="99.47" transform="matrix(0.7071 -0.7071 0.7071 0.7071 -39.901 112.8537)" class="st4" width="3.85" height="10.25"/>
			
				<rect x="102.77" y="111.04" transform="matrix(0.7072 -0.7071 0.7071 0.7072 -51.4774 108.0452)" class="st4" width="3.85" height="10.25"/>
			
				<rect x="91.19" y="122.62" transform="matrix(0.7072 -0.707 0.707 0.7072 -63.052 103.2481)" class="st4" width="3.85" height="10.25"/>
		</g>
	</g>
	<path class="st0" d="M147.5,103.37l-9.51-5.49c-1.4-0.81-2.18-2.36-2.02-3.97c0.17-1.72,0.26-3.46,0.26-5.23
		c0-2.2-0.14-4.36-0.41-6.49c-0.21-1.65,0.57-3.26,2.01-4.09l9.03-5.22c1.96-1.13,2.63-3.63,1.5-5.59l-14.32-24.81
		c-1.13-1.96-3.63-2.63-5.59-1.5l-9.51,5.49c-1.41,0.81-3.15,0.7-4.47-0.25c-3.15-2.27-6.56-4.2-10.19-5.73
		c-1.53-0.65-2.54-2.12-2.54-3.79V26.3c0-2.26-1.83-4.09-4.09-4.09H68.99c-2.26,0-4.09,1.83-4.09,4.09v10.98
		c0,1.62-0.97,3.08-2.45,3.74c-3.58,1.62-6.95,3.62-10.05,5.97c-1.33,1-3.11,1.14-4.55,0.31l-9.03-5.22
		c-1.96-1.13-4.46-0.46-5.59,1.5L18.9,68.4c-1.13,1.96-0.46,4.46,1.5,5.59l9.51,5.49c1.4,0.81,2.18,2.36,2.02,3.97
		c-0.17,1.72-0.26,3.46-0.26,5.23c0,2.2,0.14,4.36,0.41,6.49c0.21,1.65-0.57,3.26-2.01,4.09l-9.03,5.22
		c-1.96,1.13-2.63,3.63-1.5,5.59l14.32,24.81c1.13,1.96,3.63,2.63,5.59,1.5l9.51-5.49c1.41-0.81,3.15-0.7,4.47,0.25
		c3.15,2.27,6.56,4.2,10.19,5.73c1.53,0.65,2.54,2.12,2.54,3.79v10.41c0,2.26,1.83,4.09,4.09,4.09h28.65c2.26,0,4.09-1.83,4.09-4.09
		v-10.98c0-1.62,0.97-3.08,2.45-3.74c3.58-1.62,6.95-3.62,10.05-5.97c1.33-1,3.11-1.14,4.55-0.31l9.03,5.22
		c1.96,1.13,4.46,0.46,5.59-1.5L149,108.96C150.13,107,149.46,104.5,147.5,103.37z M83.95,119.38c-16.95,0-30.7-13.74-30.7-30.7
		c0-16.95,13.74-30.7,30.7-30.7s30.7,13.74,30.7,30.7C114.64,105.63,100.9,119.38,83.95,119.38z"/>
	<path class="st0" d="M220.8,187.39l-6.4-3.7c-0.94-0.54-1.47-1.59-1.36-2.67c0.12-1.16,0.18-2.33,0.18-3.52
		c0-1.48-0.1-2.94-0.28-4.37c-0.14-1.11,0.38-2.19,1.35-2.75l6.08-3.51c1.32-0.76,1.77-2.45,1.01-3.76l-9.64-16.7
		c-0.76-1.32-2.45-1.77-3.76-1.01l-6.41,3.7c-0.95,0.55-2.12,0.47-3.01-0.17c-2.12-1.53-4.42-2.83-6.86-3.86
		c-1.03-0.44-1.71-1.43-1.71-2.55v-7.01c0-1.52-1.23-2.76-2.76-2.76h-19.29c-1.52,0-2.76,1.23-2.76,2.76v7.39
		c0,1.09-0.65,2.07-1.65,2.52c-2.41,1.09-4.68,2.44-6.76,4.02c-0.89,0.68-2.1,0.77-3.07,0.21l-6.08-3.51
		c-1.32-0.76-3-0.31-3.76,1.01l-9.64,16.7c-0.76,1.32-0.31,3,1.01,3.76l6.4,3.7c0.94,0.54,1.47,1.59,1.36,2.67
		c-0.12,1.16-0.18,2.33-0.18,3.52c0,1.48,0.1,2.94,0.28,4.37c0.14,1.11-0.38,2.19-1.35,2.75l-6.08,3.51
		c-1.32,0.76-1.77,2.45-1.01,3.76l9.64,16.71c0.76,1.32,2.45,1.77,3.76,1.01l6.41-3.7c0.95-0.55,2.12-0.47,3.01,0.17
		c2.12,1.53,4.42,2.83,6.86,3.86c1.03,0.44,1.71,1.43,1.71,2.55v7.01c0,1.52,1.23,2.76,2.76,2.76h19.29c1.52,0,2.76-1.23,2.76-2.76
		v-7.39c0-1.09,0.65-2.07,1.65-2.52c2.41-1.09,4.68-2.44,6.76-4.02c0.89-0.68,2.1-0.77,3.07-0.21l6.08,3.51
		c1.32,0.76,3,0.31,3.76-1.01l9.64-16.7C222.57,189.84,222.12,188.15,220.8,187.39z M178.02,198.17c-11.41,0-20.67-9.25-20.67-20.67
		c0-11.41,9.25-20.67,20.67-20.67s20.67,9.25,20.67,20.67C198.68,188.91,189.43,198.17,178.02,198.17z"/>
</g>
<g id="Layer_2">
</g>
</svg>
